<svg width="24" height="24" viewBox="0 0 24 24" fill="none" xmlns="http://www.w3.org/2000/svg">
<path d="M21 6.75V21C21 21.7956 20.6839 22.5587 20.1213 23.1213C19.5587 23.6839 18.7956 24 18 24H6C5.20435 24 4.44129 23.6839 3.87868 23.1213C3.31607 22.5587 3 21.7956 3 21V3C3 2.20435 3.31607 1.44129 3.87868 0.87868C4.44129 0.316071 5.20435 0 6 0L14.25 0L21 6.75ZM16.5 6.75C15.9033 6.75 15.331 6.51295 14.909 6.09099C14.4871 5.66903 14.25 5.09674 14.25 4.5V1.5H6C5.60218 1.5 5.22064 1.65804 4.93934 1.93934C4.65804 2.22064 4.5 2.60218 4.5 3V21C4.5 21.3978 4.65804 21.7794 4.93934 22.0607C5.22064 22.342 5.60218 22.5 6 22.5H18C18.3978 22.5 18.7794 22.342 19.0607 22.0607C19.342 21.7794 19.5 21.3978 19.5 21V6.75H16.5Z" fill="#3182CE"/>
<path d="M12.9689 9.969C13.0385 9.89915 13.1213 9.84374 13.2124 9.80593C13.3035 9.76812 13.4012 9.74866 13.4999 9.74866C13.5985 9.74866 13.6962 9.76812 13.7873 9.80593C13.8784 9.84374 13.9612 9.89915 14.0309 9.969L17.0309 12.969C17.1007 13.0387 17.1561 13.1214 17.1939 13.2125C17.2318 13.3037 17.2512 13.4013 17.2512 13.5C17.2512 13.5986 17.2318 13.6963 17.1939 13.7874C17.1561 13.8786 17.1007 13.9613 17.0309 14.031L14.0309 17.031C13.89 17.1718 13.699 17.2509 13.4999 17.2509C13.3007 17.2509 13.1097 17.1718 12.9689 17.031C12.828 16.8902 12.7489 16.6992 12.7489 16.5C12.7489 16.3008 12.828 16.1098 12.9689 15.969L15.4394 13.5L12.9689 11.031C12.899 10.9613 12.8436 10.8786 12.8058 10.7874C12.768 10.6963 12.7485 10.5986 12.7485 10.5C12.7485 10.4013 12.768 10.3037 12.8058 10.2125C12.8436 10.1214 12.899 10.0387 12.9689 9.969ZM11.0309 9.969C10.9612 9.89915 10.8784 9.84374 10.7873 9.80593C10.6962 9.76812 10.5985 9.74866 10.4999 9.74866C10.4012 9.74866 10.3035 9.76812 10.2124 9.80593C10.1213 9.84374 10.0385 9.89915 9.96888 9.969L6.96888 12.969C6.89903 13.0387 6.84362 13.1214 6.80581 13.2125C6.768 13.3037 6.74854 13.4013 6.74854 13.5C6.74854 13.5986 6.768 13.6963 6.80581 13.7874C6.84362 13.8786 6.89903 13.9613 6.96888 14.031L9.96888 17.031C10.1097 17.1718 10.3007 17.2509 10.4999 17.2509C10.699 17.2509 10.89 17.1718 11.0309 17.031C11.1717 16.8902 11.2508 16.6992 11.2508 16.5C11.2508 16.3008 11.1717 16.1098 11.0309 15.969L8.56038 13.5L11.0309 11.031C11.1007 10.9613 11.1561 10.8786 11.1939 10.7874C11.2318 10.6963 11.2512 10.5986 11.2512 10.5C11.2512 10.4013 11.2318 10.3037 11.1939 10.2125C11.1561 10.1214 11.1007 10.0387 11.0309 9.969V9.969Z" fill="#3182CE"/>
</svg>
